<mxfile host="Electron" modified="2024-06-20T01:14:59.184Z" agent="Mozilla/5.0 (Windows NT 10.0; Win64; x64) AppleWebKit/537.36 (KHTML, like Gecko) draw.io/24.5.3 Chrome/124.0.6367.207 Electron/30.0.6 Safari/537.36" etag="_GBVN7CR3a3ub7oCvXOM" version="24.5.3" type="device" pages="2">
  <diagram name="Page-1" id="Ze1bGlfE2ohfcfPHaHTk">
    <mxGraphModel dx="1186" dy="729" grid="1" gridSize="10" guides="1" tooltips="1" connect="1" arrows="1" fold="1" page="1" pageScale="1" pageWidth="1654" pageHeight="1169" math="0" shadow="0">
      <root>
        <mxCell id="0" />
        <mxCell id="1" parent="0" />
        <mxCell id="RaZKygg7HJR882cANAni-19" value="layer_xxxxx" style="text;html=1;align=left;verticalAlign=middle;resizable=0;points=[];autosize=1;strokeColor=none;fillColor=none;" vertex="1" parent="1">
          <mxGeometry x="354" y="504" width="90" height="30" as="geometry" />
        </mxCell>
        <mxCell id="RaZKygg7HJR882cANAni-39" style="edgeStyle=orthogonalEdgeStyle;rounded=0;orthogonalLoop=1;jettySize=auto;html=1;entryX=0;entryY=0.5;entryDx=0;entryDy=0;flowAnimation=1;" edge="1" parent="1" source="LDll9gO7FLfQ4PAIb5rC-1" target="LDll9gO7FLfQ4PAIb5rC-2">
          <mxGeometry relative="1" as="geometry" />
        </mxCell>
        <mxCell id="LDll9gO7FLfQ4PAIb5rC-1" value="&quot;LINZ_WFS.bat layerconfig1.json&quot;" style="rounded=0;whiteSpace=wrap;html=1;" parent="1" vertex="1">
          <mxGeometry x="400" y="240" width="200" height="60" as="geometry" />
        </mxCell>
        <mxCell id="LDll9gO7FLfQ4PAIb5rC-2" value="LINZ_WFS.py" style="rounded=0;whiteSpace=wrap;html=1;" parent="1" vertex="1">
          <mxGeometry x="640" y="240" width="120" height="60" as="geometry" />
        </mxCell>
        <mxCell id="RaZKygg7HJR882cANAni-2" value="LINZ_WFS" style="text;html=1;align=center;verticalAlign=middle;resizable=0;points=[];autosize=1;strokeColor=none;fillColor=none;fontStyle=1;fontSize=18;" vertex="1" parent="1">
          <mxGeometry x="290" y="348" width="110" height="40" as="geometry" />
        </mxCell>
        <mxCell id="RaZKygg7HJR882cANAni-5" value="LINZ_WFS.bat&lt;div&gt;LINZ_WFS.py&lt;/div&gt;&lt;div&gt;readme.md&lt;/div&gt;" style="text;html=1;align=left;verticalAlign=middle;resizable=0;points=[];autosize=1;strokeColor=none;fillColor=none;" vertex="1" parent="1">
          <mxGeometry x="325" y="382" width="100" height="60" as="geometry" />
        </mxCell>
        <mxCell id="RaZKygg7HJR882cANAni-6" value="" style="endArrow=none;html=1;rounded=0;" edge="1" parent="1">
          <mxGeometry width="50" height="50" relative="1" as="geometry">
            <mxPoint x="320" y="740" as="sourcePoint" />
            <mxPoint x="320" y="380" as="targetPoint" />
          </mxGeometry>
        </mxCell>
        <mxCell id="RaZKygg7HJR882cANAni-7" value="" style="endArrow=none;html=1;rounded=0;" edge="1" parent="1">
          <mxGeometry width="50" height="50" relative="1" as="geometry">
            <mxPoint x="320" y="444.02" as="sourcePoint" />
            <mxPoint x="330" y="444" as="targetPoint" />
          </mxGeometry>
        </mxCell>
        <mxCell id="RaZKygg7HJR882cANAni-8" value="" style="endArrow=none;html=1;rounded=0;" edge="1" parent="1">
          <mxGeometry width="50" height="50" relative="1" as="geometry">
            <mxPoint x="320" y="501.02" as="sourcePoint" />
            <mxPoint x="330" y="501" as="targetPoint" />
          </mxGeometry>
        </mxCell>
        <mxCell id="RaZKygg7HJR882cANAni-11" value="config" style="text;html=1;align=left;verticalAlign=middle;resizable=0;points=[];autosize=1;strokeColor=none;fillColor=none;" vertex="1" parent="1">
          <mxGeometry x="331" y="428" width="60" height="30" as="geometry" />
        </mxCell>
        <mxCell id="RaZKygg7HJR882cANAni-12" value="logs" style="text;html=1;align=left;verticalAlign=middle;resizable=0;points=[];autosize=1;strokeColor=none;fillColor=none;" vertex="1" parent="1">
          <mxGeometry x="332" y="682" width="50" height="30" as="geometry" />
        </mxCell>
        <mxCell id="RaZKygg7HJR882cANAni-14" value="data" style="text;html=1;align=left;verticalAlign=middle;resizable=0;points=[];autosize=1;strokeColor=none;fillColor=none;" vertex="1" parent="1">
          <mxGeometry x="332" y="486" width="50" height="30" as="geometry" />
        </mxCell>
        <mxCell id="RaZKygg7HJR882cANAni-15" value="" style="endArrow=none;html=1;rounded=0;" edge="1" parent="1">
          <mxGeometry width="50" height="50" relative="1" as="geometry">
            <mxPoint x="345" y="680" as="sourcePoint" />
            <mxPoint x="345" y="508" as="targetPoint" />
          </mxGeometry>
        </mxCell>
        <mxCell id="RaZKygg7HJR882cANAni-18" value="Name_of_dataset1" style="text;html=1;align=left;verticalAlign=middle;resizable=0;points=[];autosize=1;strokeColor=none;fillColor=none;" vertex="1" parent="1">
          <mxGeometry x="370" y="521" width="120" height="30" as="geometry" />
        </mxCell>
        <mxCell id="RaZKygg7HJR882cANAni-20" value="Name_of_dataset2" style="text;html=1;align=left;verticalAlign=middle;resizable=0;points=[];autosize=1;strokeColor=none;fillColor=none;" vertex="1" parent="1">
          <mxGeometry x="370" y="600" width="120" height="30" as="geometry" />
        </mxCell>
        <mxCell id="RaZKygg7HJR882cANAni-21" value="" style="endArrow=none;html=1;rounded=0;" edge="1" parent="1">
          <mxGeometry width="50" height="50" relative="1" as="geometry">
            <mxPoint x="361" y="680" as="sourcePoint" />
            <mxPoint x="360.86" y="525" as="targetPoint" />
          </mxGeometry>
        </mxCell>
        <mxCell id="RaZKygg7HJR882cANAni-24" value="" style="endArrow=none;html=1;rounded=0;" edge="1" parent="1">
          <mxGeometry width="50" height="50" relative="1" as="geometry">
            <mxPoint x="345" y="519.02" as="sourcePoint" />
            <mxPoint x="355" y="519" as="targetPoint" />
          </mxGeometry>
        </mxCell>
        <mxCell id="RaZKygg7HJR882cANAni-25" value="" style="endArrow=none;html=1;rounded=0;" edge="1" parent="1">
          <mxGeometry width="50" height="50" relative="1" as="geometry">
            <mxPoint x="361" y="535.96" as="sourcePoint" />
            <mxPoint x="371" y="535.94" as="targetPoint" />
          </mxGeometry>
        </mxCell>
        <mxCell id="RaZKygg7HJR882cANAni-26" value="" style="endArrow=none;html=1;rounded=0;" edge="1" parent="1">
          <mxGeometry width="50" height="50" relative="1" as="geometry">
            <mxPoint x="345" y="490" as="sourcePoint" />
            <mxPoint x="345" y="450" as="targetPoint" />
          </mxGeometry>
        </mxCell>
        <mxCell id="RaZKygg7HJR882cANAni-27" value="settings.json" style="text;html=1;align=left;verticalAlign=middle;resizable=0;points=[];autosize=1;strokeColor=none;fillColor=none;" vertex="1" parent="1">
          <mxGeometry x="348" y="442" width="90" height="30" as="geometry" />
        </mxCell>
        <mxCell id="RaZKygg7HJR882cANAni-28" value="layerconfig1.json" style="text;html=1;align=left;verticalAlign=middle;resizable=0;points=[];autosize=1;strokeColor=none;fillColor=none;" vertex="1" parent="1">
          <mxGeometry x="348" y="456" width="110" height="30" as="geometry" />
        </mxCell>
        <mxCell id="RaZKygg7HJR882cANAni-29" value="layerconfig2.json" style="text;html=1;align=left;verticalAlign=middle;resizable=0;points=[];autosize=1;strokeColor=none;fillColor=none;" vertex="1" parent="1">
          <mxGeometry x="348" y="470" width="110" height="30" as="geometry" />
        </mxCell>
        <mxCell id="RaZKygg7HJR882cANAni-30" value="" style="endArrow=none;html=1;rounded=0;" edge="1" parent="1">
          <mxGeometry width="50" height="50" relative="1" as="geometry">
            <mxPoint x="380" y="604" as="sourcePoint" />
            <mxPoint x="380" y="544" as="targetPoint" />
          </mxGeometry>
        </mxCell>
        <mxCell id="RaZKygg7HJR882cANAni-31" value="LINZ_WFS.py_last_run.log&lt;div&gt;logfile.log&lt;/div&gt;" style="text;html=1;align=left;verticalAlign=middle;resizable=0;points=[];autosize=1;strokeColor=none;fillColor=none;" vertex="1" parent="1">
          <mxGeometry x="349" y="706" width="170" height="40" as="geometry" />
        </mxCell>
        <mxCell id="RaZKygg7HJR882cANAni-32" value="staging.gdb&lt;div&gt;layer_xxxxx_changeset_20240619_1722.json&lt;/div&gt;&lt;div&gt;layer_xxxxx_20240618_1500.json&lt;/div&gt;" style="text;html=1;align=left;verticalAlign=middle;resizable=0;points=[];autosize=1;strokeColor=none;fillColor=none;" vertex="1" parent="1">
          <mxGeometry x="383" y="537" width="270" height="60" as="geometry" />
        </mxCell>
        <mxCell id="RaZKygg7HJR882cANAni-33" value="" style="endArrow=none;html=1;rounded=0;" edge="1" parent="1">
          <mxGeometry width="50" height="50" relative="1" as="geometry">
            <mxPoint x="361" y="615.02" as="sourcePoint" />
            <mxPoint x="371" y="615" as="targetPoint" />
          </mxGeometry>
        </mxCell>
        <mxCell id="RaZKygg7HJR882cANAni-34" value="" style="endArrow=none;html=1;rounded=0;" edge="1" parent="1">
          <mxGeometry width="50" height="50" relative="1" as="geometry">
            <mxPoint x="380" y="680" as="sourcePoint" />
            <mxPoint x="380.5" y="623.5" as="targetPoint" />
          </mxGeometry>
        </mxCell>
        <mxCell id="RaZKygg7HJR882cANAni-35" value="staging.gdb&lt;div&gt;layer_xxxxx_20240619_1600.json&lt;/div&gt;&lt;div&gt;layer_xxxxx_changeset_20240618_1300.json&lt;/div&gt;" style="text;html=1;align=left;verticalAlign=middle;resizable=0;points=[];autosize=1;strokeColor=none;fillColor=none;" vertex="1" parent="1">
          <mxGeometry x="383.5" y="616.5" width="270" height="60" as="geometry" />
        </mxCell>
        <mxCell id="RaZKygg7HJR882cANAni-36" value="" style="endArrow=none;html=1;rounded=0;" edge="1" parent="1">
          <mxGeometry width="50" height="50" relative="1" as="geometry">
            <mxPoint x="320" y="697.02" as="sourcePoint" />
            <mxPoint x="330" y="697" as="targetPoint" />
          </mxGeometry>
        </mxCell>
        <mxCell id="RaZKygg7HJR882cANAni-37" value="" style="endArrow=none;html=1;rounded=0;" edge="1" parent="1">
          <mxGeometry width="50" height="50" relative="1" as="geometry">
            <mxPoint x="344" y="740" as="sourcePoint" />
            <mxPoint x="344" y="707" as="targetPoint" />
          </mxGeometry>
        </mxCell>
        <mxCell id="RaZKygg7HJR882cANAni-38" value="LINZ WFS" style="rounded=0;whiteSpace=wrap;html=1;" vertex="1" parent="1">
          <mxGeometry x="940" y="359" width="120" height="168" as="geometry" />
        </mxCell>
        <mxCell id="RaZKygg7HJR882cANAni-40" value="" style="endArrow=classic;html=1;rounded=0;exitX=0.664;exitY=0.085;exitDx=0;exitDy=0;exitPerimeter=0;flowAnimation=1;entryX=0.084;entryY=1.005;entryDx=0;entryDy=0;entryPerimeter=0;" edge="1" parent="1" source="RaZKygg7HJR882cANAni-28" target="LDll9gO7FLfQ4PAIb5rC-2">
          <mxGeometry width="50" height="50" relative="1" as="geometry">
            <mxPoint x="590" y="420" as="sourcePoint" />
            <mxPoint x="650" y="310" as="targetPoint" />
          </mxGeometry>
        </mxCell>
        <mxCell id="RaZKygg7HJR882cANAni-41" value="" style="endArrow=classic;html=1;rounded=0;exitX=0.861;exitY=0.086;exitDx=0;exitDy=0;exitPerimeter=0;flowAnimation=1;entryX=0.25;entryY=1;entryDx=0;entryDy=0;" edge="1" parent="1" source="RaZKygg7HJR882cANAni-29" target="LDll9gO7FLfQ4PAIb5rC-2">
          <mxGeometry width="50" height="50" relative="1" as="geometry">
            <mxPoint x="431" y="469" as="sourcePoint" />
            <mxPoint x="660" y="320" as="targetPoint" />
          </mxGeometry>
        </mxCell>
        <mxCell id="RaZKygg7HJR882cANAni-42" value="" style="endArrow=classic;html=1;rounded=0;exitX=0.861;exitY=0.086;exitDx=0;exitDy=0;exitPerimeter=0;flowAnimation=1;" edge="1" parent="1">
          <mxGeometry width="50" height="50" relative="1" as="geometry">
            <mxPoint x="680" y="310" as="sourcePoint" />
            <mxPoint x="460" y="510" as="targetPoint" />
          </mxGeometry>
        </mxCell>
        <mxCell id="RaZKygg7HJR882cANAni-43" value="" style="endArrow=classic;html=1;rounded=0;exitX=0.635;exitY=1.057;exitDx=0;exitDy=0;exitPerimeter=0;flowAnimation=1;entryX=-0.032;entryY=0.234;entryDx=0;entryDy=0;entryPerimeter=0;" edge="1" parent="1" source="LDll9gO7FLfQ4PAIb5rC-2" target="RaZKygg7HJR882cANAni-38">
          <mxGeometry width="50" height="50" relative="1" as="geometry">
            <mxPoint x="750" y="337" as="sourcePoint" />
            <mxPoint x="530" y="537" as="targetPoint" />
          </mxGeometry>
        </mxCell>
        <mxCell id="RaZKygg7HJR882cANAni-44" value="" style="endArrow=classic;html=1;rounded=0;exitX=-0.032;exitY=0.356;exitDx=0;exitDy=0;exitPerimeter=0;flowAnimation=1;entryX=0.693;entryY=0.883;entryDx=0;entryDy=0;entryPerimeter=0;" edge="1" parent="1">
          <mxGeometry width="50" height="50" relative="1" as="geometry">
            <mxPoint x="936.1599999999999" y="417.80800000000005" as="sourcePoint" />
            <mxPoint x="570.11" y="588.9799999999999" as="targetPoint" />
            <Array as="points">
              <mxPoint x="760" y="589" />
            </Array>
          </mxGeometry>
        </mxCell>
        <mxCell id="RaZKygg7HJR882cANAni-45" value="" style="endArrow=classic;html=1;rounded=0;exitX=0.693;exitY=0.717;exitDx=0;exitDy=0;exitPerimeter=0;flowAnimation=1;entryX=0.248;entryY=0.217;entryDx=0;entryDy=0;entryPerimeter=0;" edge="1" parent="1">
          <mxGeometry width="50" height="50" relative="1" as="geometry">
            <mxPoint x="578.1499999999999" y="581.02" as="sourcePoint" />
            <mxPoint x="458.00000000000006" y="551.02" as="targetPoint" />
            <Array as="points">
              <mxPoint x="670" y="581" />
              <mxPoint x="670" y="550" />
            </Array>
          </mxGeometry>
        </mxCell>
      </root>
    </mxGraphModel>
  </diagram>
  <diagram id="kFZ4mK9KGCh9pMJ1I_Pz" name="Page-2">
    <mxGraphModel dx="1779" dy="1094" grid="1" gridSize="10" guides="1" tooltips="1" connect="1" arrows="1" fold="1" page="1" pageScale="1" pageWidth="1169" pageHeight="827" math="0" shadow="0">
      <root>
        <mxCell id="0" />
        <mxCell id="1" parent="0" />
        <mxCell id="GNlKxyIuIKPViT63K3h2-47" value="" style="rounded=0;whiteSpace=wrap;html=1;textShadow=1;" vertex="1" parent="1">
          <mxGeometry x="70" y="40" width="710" height="1060" as="geometry" />
        </mxCell>
        <mxCell id="GNlKxyIuIKPViT63K3h2-22" style="edgeStyle=orthogonalEdgeStyle;rounded=0;orthogonalLoop=1;jettySize=auto;html=1;entryX=0.5;entryY=0;entryDx=0;entryDy=0;flowAnimation=1;textShadow=1;" edge="1" parent="1" source="GNlKxyIuIKPViT63K3h2-4" target="GNlKxyIuIKPViT63K3h2-7">
          <mxGeometry relative="1" as="geometry" />
        </mxCell>
        <mxCell id="GNlKxyIuIKPViT63K3h2-4" value="Load config file&lt;div&gt;e.g. layerconfig1.json&lt;/div&gt;" style="whiteSpace=wrap;html=1;textShadow=1;shadow=1;" vertex="1" parent="1">
          <mxGeometry x="370" y="160" width="160" height="60" as="geometry" />
        </mxCell>
        <mxCell id="GNlKxyIuIKPViT63K3h2-5" value="Load settings.json" style="whiteSpace=wrap;html=1;shadow=1;textShadow=1;" vertex="1" parent="1">
          <mxGeometry x="370" y="70" width="160" height="60" as="geometry" />
        </mxCell>
        <mxCell id="GNlKxyIuIKPViT63K3h2-24" style="edgeStyle=orthogonalEdgeStyle;rounded=0;orthogonalLoop=1;jettySize=auto;html=1;entryX=0.5;entryY=0;entryDx=0;entryDy=0;flowAnimation=1;textShadow=1;" edge="1" parent="1" source="GNlKxyIuIKPViT63K3h2-6" target="GNlKxyIuIKPViT63K3h2-8">
          <mxGeometry relative="1" as="geometry" />
        </mxCell>
        <mxCell id="GNlKxyIuIKPViT63K3h2-27" value="NO" style="edgeLabel;html=1;align=center;verticalAlign=middle;resizable=0;points=[];textShadow=1;" vertex="1" connectable="0" parent="GNlKxyIuIKPViT63K3h2-24">
          <mxGeometry x="-0.3939" y="1" relative="1" as="geometry">
            <mxPoint as="offset" />
          </mxGeometry>
        </mxCell>
        <mxCell id="GNlKxyIuIKPViT63K3h2-25" style="edgeStyle=orthogonalEdgeStyle;rounded=0;orthogonalLoop=1;jettySize=auto;html=1;entryX=0.5;entryY=0;entryDx=0;entryDy=0;flowAnimation=1;textShadow=1;" edge="1" parent="1" source="GNlKxyIuIKPViT63K3h2-6" target="GNlKxyIuIKPViT63K3h2-9">
          <mxGeometry relative="1" as="geometry" />
        </mxCell>
        <mxCell id="GNlKxyIuIKPViT63K3h2-26" value="YES" style="edgeLabel;html=1;align=center;verticalAlign=middle;resizable=0;points=[];textShadow=1;" vertex="1" connectable="0" parent="GNlKxyIuIKPViT63K3h2-25">
          <mxGeometry x="-0.2232" y="-1" relative="1" as="geometry">
            <mxPoint as="offset" />
          </mxGeometry>
        </mxCell>
        <mxCell id="GNlKxyIuIKPViT63K3h2-6" value="Is changeset?" style="rhombus;whiteSpace=wrap;html=1;textShadow=1;shadow=1;" vertex="1" parent="1">
          <mxGeometry x="390" y="333" width="120" height="110" as="geometry" />
        </mxCell>
        <mxCell id="GNlKxyIuIKPViT63K3h2-23" style="edgeStyle=orthogonalEdgeStyle;rounded=0;orthogonalLoop=1;jettySize=auto;html=1;entryX=0.5;entryY=0;entryDx=0;entryDy=0;flowAnimation=1;textShadow=1;" edge="1" parent="1" source="GNlKxyIuIKPViT63K3h2-7" target="GNlKxyIuIKPViT63K3h2-6">
          <mxGeometry relative="1" as="geometry" />
        </mxCell>
        <mxCell id="GNlKxyIuIKPViT63K3h2-7" value="Download raw data to json file in data directory" style="whiteSpace=wrap;html=1;textShadow=1;shadow=1;" vertex="1" parent="1">
          <mxGeometry x="370" y="250" width="160" height="60" as="geometry" />
        </mxCell>
        <mxCell id="GNlKxyIuIKPViT63K3h2-28" style="edgeStyle=orthogonalEdgeStyle;rounded=0;orthogonalLoop=1;jettySize=auto;html=1;entryX=0.5;entryY=0;entryDx=0;entryDy=0;flowAnimation=1;textShadow=1;" edge="1" parent="1" source="GNlKxyIuIKPViT63K3h2-8" target="GNlKxyIuIKPViT63K3h2-10">
          <mxGeometry relative="1" as="geometry" />
        </mxCell>
        <mxCell id="GNlKxyIuIKPViT63K3h2-8" value="Delete main layer in staging.gdb" style="whiteSpace=wrap;html=1;textShadow=1;shadow=1;" vertex="1" parent="1">
          <mxGeometry x="210" y="418" width="160" height="60" as="geometry" />
        </mxCell>
        <mxCell id="GNlKxyIuIKPViT63K3h2-31" style="edgeStyle=orthogonalEdgeStyle;rounded=0;orthogonalLoop=1;jettySize=auto;html=1;entryX=0.5;entryY=0;entryDx=0;entryDy=0;flowAnimation=1;textShadow=1;" edge="1" parent="1" source="GNlKxyIuIKPViT63K3h2-9" target="GNlKxyIuIKPViT63K3h2-11">
          <mxGeometry relative="1" as="geometry" />
        </mxCell>
        <mxCell id="GNlKxyIuIKPViT63K3h2-9" value="Delete changeset layer in staging.gdb" style="whiteSpace=wrap;html=1;textShadow=1;shadow=1;" vertex="1" parent="1">
          <mxGeometry x="530" y="418" width="160" height="60" as="geometry" />
        </mxCell>
        <mxCell id="GNlKxyIuIKPViT63K3h2-29" style="edgeStyle=orthogonalEdgeStyle;rounded=0;orthogonalLoop=1;jettySize=auto;html=1;entryX=0.5;entryY=0;entryDx=0;entryDy=0;flowAnimation=1;textShadow=1;" edge="1" parent="1" source="GNlKxyIuIKPViT63K3h2-10" target="GNlKxyIuIKPViT63K3h2-12">
          <mxGeometry relative="1" as="geometry" />
        </mxCell>
        <mxCell id="GNlKxyIuIKPViT63K3h2-10" value="Recreate main layer by converting JSON data to feature class" style="whiteSpace=wrap;html=1;textShadow=1;shadow=1;" vertex="1" parent="1">
          <mxGeometry x="210" y="508" width="160" height="60" as="geometry" />
        </mxCell>
        <mxCell id="GNlKxyIuIKPViT63K3h2-30" style="edgeStyle=orthogonalEdgeStyle;rounded=0;orthogonalLoop=1;jettySize=auto;html=1;entryX=0.5;entryY=0;entryDx=0;entryDy=0;flowAnimation=1;textShadow=1;" edge="1" parent="1" source="GNlKxyIuIKPViT63K3h2-11" target="GNlKxyIuIKPViT63K3h2-18">
          <mxGeometry relative="1" as="geometry" />
        </mxCell>
        <mxCell id="GNlKxyIuIKPViT63K3h2-11" value="Apply changes from changeset layer in staging gdb to main layer in staging.gdb" style="whiteSpace=wrap;html=1;textShadow=1;shadow=1;" vertex="1" parent="1">
          <mxGeometry x="530" y="508" width="160" height="60" as="geometry" />
        </mxCell>
        <mxCell id="GNlKxyIuIKPViT63K3h2-32" style="edgeStyle=orthogonalEdgeStyle;rounded=0;orthogonalLoop=1;jettySize=auto;html=1;entryX=0.5;entryY=0;entryDx=0;entryDy=0;flowAnimation=1;textShadow=1;" edge="1" parent="1" source="GNlKxyIuIKPViT63K3h2-12" target="GNlKxyIuIKPViT63K3h2-14">
          <mxGeometry relative="1" as="geometry" />
        </mxCell>
        <mxCell id="GNlKxyIuIKPViT63K3h2-39" value="YES" style="edgeLabel;html=1;align=center;verticalAlign=middle;resizable=0;points=[];textShadow=1;" vertex="1" connectable="0" parent="GNlKxyIuIKPViT63K3h2-32">
          <mxGeometry x="-0.5779" y="-1" relative="1" as="geometry">
            <mxPoint as="offset" />
          </mxGeometry>
        </mxCell>
        <mxCell id="GNlKxyIuIKPViT63K3h2-40" style="edgeStyle=orthogonalEdgeStyle;rounded=0;orthogonalLoop=1;jettySize=auto;html=1;entryX=0.5;entryY=0;entryDx=0;entryDy=0;flowAnimation=1;textShadow=1;" edge="1" parent="1" source="GNlKxyIuIKPViT63K3h2-12" target="GNlKxyIuIKPViT63K3h2-20">
          <mxGeometry relative="1" as="geometry" />
        </mxCell>
        <mxCell id="GNlKxyIuIKPViT63K3h2-41" value="NO" style="edgeLabel;html=1;align=center;verticalAlign=middle;resizable=0;points=[];textShadow=1;" vertex="1" connectable="0" parent="GNlKxyIuIKPViT63K3h2-40">
          <mxGeometry x="-0.8535" y="1" relative="1" as="geometry">
            <mxPoint as="offset" />
          </mxGeometry>
        </mxCell>
        <mxCell id="GNlKxyIuIKPViT63K3h2-12" value="Target specified?" style="rhombus;whiteSpace=wrap;html=1;textShadow=1;shadow=1;" vertex="1" parent="1">
          <mxGeometry x="230" y="598" width="120" height="110" as="geometry" />
        </mxCell>
        <mxCell id="GNlKxyIuIKPViT63K3h2-35" style="edgeStyle=orthogonalEdgeStyle;rounded=0;orthogonalLoop=1;jettySize=auto;html=1;entryX=0.5;entryY=0;entryDx=0;entryDy=0;exitX=0;exitY=0.5;exitDx=0;exitDy=0;flowAnimation=1;textShadow=1;" edge="1" parent="1" source="GNlKxyIuIKPViT63K3h2-14" target="GNlKxyIuIKPViT63K3h2-15">
          <mxGeometry relative="1" as="geometry" />
        </mxCell>
        <mxCell id="GNlKxyIuIKPViT63K3h2-49" value="YES" style="edgeLabel;html=1;align=center;verticalAlign=middle;resizable=0;points=[];textShadow=1;" vertex="1" connectable="0" parent="GNlKxyIuIKPViT63K3h2-35">
          <mxGeometry x="0.2536" y="-1" relative="1" as="geometry">
            <mxPoint x="1" as="offset" />
          </mxGeometry>
        </mxCell>
        <mxCell id="GNlKxyIuIKPViT63K3h2-36" style="edgeStyle=orthogonalEdgeStyle;rounded=0;orthogonalLoop=1;jettySize=auto;html=1;entryX=0.5;entryY=0;entryDx=0;entryDy=0;exitX=1;exitY=0.5;exitDx=0;exitDy=0;flowAnimation=1;textShadow=1;" edge="1" parent="1" source="GNlKxyIuIKPViT63K3h2-14" target="GNlKxyIuIKPViT63K3h2-17">
          <mxGeometry relative="1" as="geometry" />
        </mxCell>
        <mxCell id="GNlKxyIuIKPViT63K3h2-50" value="NO" style="edgeLabel;html=1;align=center;verticalAlign=middle;resizable=0;points=[];textShadow=1;" vertex="1" connectable="0" parent="GNlKxyIuIKPViT63K3h2-36">
          <mxGeometry x="0.2344" y="1" relative="1" as="geometry">
            <mxPoint as="offset" />
          </mxGeometry>
        </mxCell>
        <mxCell id="GNlKxyIuIKPViT63K3h2-14" value="Is target versioned&lt;div&gt;or has attachments?&lt;/div&gt;" style="rhombus;whiteSpace=wrap;html=1;textShadow=1;shadow=1;" vertex="1" parent="1">
          <mxGeometry x="215" y="738" width="150" height="110" as="geometry" />
        </mxCell>
        <mxCell id="GNlKxyIuIKPViT63K3h2-37" style="edgeStyle=orthogonalEdgeStyle;rounded=0;orthogonalLoop=1;jettySize=auto;html=1;entryX=0.5;entryY=0;entryDx=0;entryDy=0;flowAnimation=1;textShadow=1;" edge="1" parent="1" source="GNlKxyIuIKPViT63K3h2-15" target="GNlKxyIuIKPViT63K3h2-16">
          <mxGeometry relative="1" as="geometry" />
        </mxCell>
        <mxCell id="GNlKxyIuIKPViT63K3h2-15" value="Use DeleteRows to delete all rows in target." style="whiteSpace=wrap;html=1;textShadow=1;shadow=1;" vertex="1" parent="1">
          <mxGeometry x="140" y="837" width="100" height="60" as="geometry" />
        </mxCell>
        <mxCell id="GNlKxyIuIKPViT63K3h2-45" style="edgeStyle=orthogonalEdgeStyle;rounded=0;orthogonalLoop=1;jettySize=auto;html=1;entryX=0;entryY=0.5;entryDx=0;entryDy=0;exitX=0.5;exitY=1;exitDx=0;exitDy=0;flowAnimation=1;textShadow=1;" edge="1" parent="1" source="GNlKxyIuIKPViT63K3h2-16" target="GNlKxyIuIKPViT63K3h2-20">
          <mxGeometry relative="1" as="geometry" />
        </mxCell>
        <mxCell id="GNlKxyIuIKPViT63K3h2-16" value="Append all data from main layer in staging.gdb to target." style="whiteSpace=wrap;html=1;textShadow=1;shadow=1;" vertex="1" parent="1">
          <mxGeometry x="210" y="947" width="160" height="60" as="geometry" />
        </mxCell>
        <mxCell id="GNlKxyIuIKPViT63K3h2-38" style="edgeStyle=orthogonalEdgeStyle;rounded=0;orthogonalLoop=1;jettySize=auto;html=1;entryX=0.5;entryY=0;entryDx=0;entryDy=0;flowAnimation=1;textShadow=1;" edge="1" parent="1" source="GNlKxyIuIKPViT63K3h2-17" target="GNlKxyIuIKPViT63K3h2-16">
          <mxGeometry relative="1" as="geometry" />
        </mxCell>
        <mxCell id="GNlKxyIuIKPViT63K3h2-17" value="Use TruncateTable to delete all rows in target." style="whiteSpace=wrap;html=1;textShadow=1;shadow=1;" vertex="1" parent="1">
          <mxGeometry x="330" y="837" width="110" height="60" as="geometry" />
        </mxCell>
        <mxCell id="GNlKxyIuIKPViT63K3h2-42" style="edgeStyle=orthogonalEdgeStyle;rounded=0;orthogonalLoop=1;jettySize=auto;html=1;entryX=0.5;entryY=0;entryDx=0;entryDy=0;flowAnimation=1;textShadow=1;" edge="1" parent="1" source="GNlKxyIuIKPViT63K3h2-18" target="GNlKxyIuIKPViT63K3h2-20">
          <mxGeometry relative="1" as="geometry" />
        </mxCell>
        <mxCell id="GNlKxyIuIKPViT63K3h2-43" value="NO" style="edgeLabel;html=1;align=center;verticalAlign=middle;resizable=0;points=[];textShadow=1;" vertex="1" connectable="0" parent="GNlKxyIuIKPViT63K3h2-42">
          <mxGeometry x="-0.8253" y="1" relative="1" as="geometry">
            <mxPoint as="offset" />
          </mxGeometry>
        </mxCell>
        <mxCell id="GNlKxyIuIKPViT63K3h2-18" value="Target specified?" style="rhombus;whiteSpace=wrap;html=1;textShadow=1;shadow=1;" vertex="1" parent="1">
          <mxGeometry x="550" y="598" width="120" height="110" as="geometry" />
        </mxCell>
        <mxCell id="GNlKxyIuIKPViT63K3h2-46" style="edgeStyle=orthogonalEdgeStyle;rounded=0;orthogonalLoop=1;jettySize=auto;html=1;entryX=1;entryY=0.5;entryDx=0;entryDy=0;exitX=0.5;exitY=1;exitDx=0;exitDy=0;flowAnimation=1;textShadow=1;" edge="1" parent="1" source="GNlKxyIuIKPViT63K3h2-19" target="GNlKxyIuIKPViT63K3h2-20">
          <mxGeometry relative="1" as="geometry" />
        </mxCell>
        <mxCell id="GNlKxyIuIKPViT63K3h2-19" value="Apply changes from changeset layer in staging gdb to target." style="whiteSpace=wrap;html=1;textShadow=1;shadow=1;" vertex="1" parent="1">
          <mxGeometry x="520" y="748" width="160" height="60" as="geometry" />
        </mxCell>
        <mxCell id="GNlKxyIuIKPViT63K3h2-20" value="FINISH" style="ellipse;whiteSpace=wrap;html=1;textShadow=1;shadow=1;" vertex="1" parent="1">
          <mxGeometry x="410" y="1002" width="80" height="80" as="geometry" />
        </mxCell>
        <mxCell id="GNlKxyIuIKPViT63K3h2-21" style="edgeStyle=orthogonalEdgeStyle;rounded=0;orthogonalLoop=1;jettySize=auto;html=1;entryX=0.499;entryY=-0.044;entryDx=0;entryDy=0;entryPerimeter=0;flowAnimation=1;textShadow=1;" edge="1" parent="1" source="GNlKxyIuIKPViT63K3h2-5" target="GNlKxyIuIKPViT63K3h2-4">
          <mxGeometry relative="1" as="geometry" />
        </mxCell>
        <mxCell id="GNlKxyIuIKPViT63K3h2-33" style="edgeStyle=orthogonalEdgeStyle;rounded=0;orthogonalLoop=1;jettySize=auto;html=1;entryX=0.561;entryY=-0.018;entryDx=0;entryDy=0;entryPerimeter=0;flowAnimation=1;textShadow=1;" edge="1" parent="1" source="GNlKxyIuIKPViT63K3h2-18" target="GNlKxyIuIKPViT63K3h2-19">
          <mxGeometry relative="1" as="geometry" />
        </mxCell>
        <mxCell id="GNlKxyIuIKPViT63K3h2-48" value="YES" style="edgeLabel;html=1;align=center;verticalAlign=middle;resizable=0;points=[];textShadow=1;" vertex="1" connectable="0" parent="GNlKxyIuIKPViT63K3h2-33">
          <mxGeometry x="-0.2376" relative="1" as="geometry">
            <mxPoint as="offset" />
          </mxGeometry>
        </mxCell>
      </root>
    </mxGraphModel>
  </diagram>
</mxfile>
